<?xml version="1.0" encoding="utf-8"?><svg xmlns="http://www.w3.org/2000/svg" xmlns:xlink="http://www.w3.org/1999/xlink"><symbol viewBox="0 0 24 24" id="account" xmlns="http://www.w3.org/2000/svg"><path d="M12 1.875C9.99747 1.875 8.0399 2.46882 6.37486 3.58137C4.70981 4.69392 3.41206 6.27523 2.64572 8.12533C1.87939 9.97543 1.67888 12.0112 2.06955 13.9753C2.46023 15.9393 3.42454 17.7435 4.84055 19.1595C6.25656 20.5755 8.06066 21.5398 10.0247 21.9305C11.9888 22.3211 14.0246 22.1206 15.8747 21.3543C17.7248 20.5879 19.3061 19.2902 20.4186 17.6251C21.5312 15.9601 22.125 14.0025 22.125 12C22.122 9.3156 21.0543 6.74199 19.1562 4.84383C17.258 2.94567 14.6844 1.87798 12 1.875ZM7.45969 18.4284C7.98195 17.7143 8.66528 17.1335 9.45418 16.7331C10.2431 16.3327 11.1153 16.124 12 16.124C12.8847 16.124 13.7569 16.3327 14.5458 16.7331C15.3347 17.1335 16.0181 17.7143 16.5403 18.4284C15.2134 19.3695 13.6268 19.875 12 19.875C10.3732 19.875 8.78665 19.3695 7.45969 18.4284ZM9.375 11.25C9.375 10.7308 9.52896 10.2233 9.8174 9.79163C10.1058 9.35995 10.5158 9.0235 10.9955 8.82482C11.4751 8.62614 12.0029 8.57415 12.5121 8.67544C13.0213 8.77672 13.489 9.02673 13.8562 9.39384C14.2233 9.76096 14.4733 10.2287 14.5746 10.7379C14.6759 11.2471 14.6239 11.7749 14.4252 12.2545C14.2265 12.7342 13.8901 13.1442 13.4584 13.4326C13.0267 13.721 12.5192 13.875 12 13.875C11.3038 13.875 10.6361 13.5984 10.1438 13.1062C9.65157 12.6139 9.375 11.9462 9.375 11.25ZM18.1875 16.8694C17.4583 15.9419 16.5289 15.1914 15.4688 14.6737C16.1444 13.9896 16.6026 13.1208 16.7858 12.1769C16.9689 11.2329 16.8688 10.2558 16.498 9.36861C16.1273 8.4814 15.5024 7.72364 14.702 7.19068C13.9017 6.65771 12.9616 6.37334 12 6.37334C11.0384 6.37334 10.0983 6.65771 9.29797 7.19068C8.49762 7.72364 7.87275 8.4814 7.50198 9.36861C7.13121 10.2558 7.0311 11.2329 7.21424 12.1769C7.39739 13.1208 7.85561 13.9896 8.53125 14.6737C7.4711 15.1914 6.54168 15.9419 5.8125 16.8694C4.89661 15.7083 4.32614 14.3129 4.1664 12.8427C4.00665 11.3725 4.2641 9.88711 4.90925 8.55644C5.55441 7.22578 6.5612 6.10366 7.81439 5.31855C9.06757 4.53343 10.5165 4.11703 11.9953 4.11703C13.4741 4.11703 14.9231 4.53343 16.1762 5.31855C17.4294 6.10366 18.4362 7.22578 19.0814 8.55644C19.7265 9.88711 19.984 11.3725 19.8242 12.8427C19.6645 14.3129 19.094 15.7083 18.1781 16.8694H18.1875Z"/></symbol><symbol viewBox="0 0 24 24" id="arrow-swiper" xmlns="http://www.w3.org/2000/svg"><path d="M9.70406 4.4541L2.95406 11.2041C2.84918 11.3086 2.76597 11.4328 2.70919 11.5696C2.6524 11.7063 2.62317 11.8529 2.62317 12.001C2.62317 12.149 2.6524 12.2957 2.70919 12.4324C2.76597 12.5691 2.84918 12.6933 2.95406 12.7979L9.70406 19.5479C9.91541 19.7592 10.2021 19.8779 10.5009 19.8779C10.7998 19.8779 11.0865 19.7592 11.2978 19.5479C11.5092 19.3365 11.6279 19.0499 11.6279 18.751C11.6279 18.4521 11.5092 18.1654 11.2978 17.9541L6.46875 13.125L20.25 13.125C20.5484 13.125 20.8345 13.0065 21.0455 12.7955C21.2565 12.5846 21.375 12.2984 21.375 12C21.375 11.7017 21.2565 11.4155 21.0455 11.2045C20.8345 10.9936 20.5484 10.875 20.25 10.875L6.46875 10.875L11.2987 6.04598C11.5101 5.83463 11.6288 5.54799 11.6288 5.2491C11.6288 4.95022 11.5101 4.66357 11.2987 4.45223C11.0874 4.24088 10.8008 4.12215 10.5019 4.12215C10.203 4.12215 9.91634 4.24088 9.705 4.45223L9.70406 4.4541Z"/></symbol><symbol viewBox="0 0 24 24" id="burger" xmlns="http://www.w3.org/2000/svg"><path d="M21.375 12C21.375 12.2984 21.2565 12.5845 21.0455 12.7955C20.8345 13.0065 20.5484 13.125 20.25 13.125H3.75C3.45163 13.125 3.16548 13.0065 2.9545 12.7955C2.74353 12.5845 2.625 12.2984 2.625 12C2.625 11.7016 2.74353 11.4155 2.9545 11.2045C3.16548 10.9935 3.45163 10.875 3.75 10.875H20.25C20.5484 10.875 20.8345 10.9935 21.0455 11.2045C21.2565 11.4155 21.375 11.7016 21.375 12ZM3.75 7.125H20.25C20.5484 7.125 20.8345 7.00647 21.0455 6.7955C21.2565 6.58452 21.375 6.29837 21.375 6C21.375 5.70163 21.2565 5.41548 21.0455 5.2045C20.8345 4.99353 20.5484 4.875 20.25 4.875H3.75C3.45163 4.875 3.16548 4.99353 2.9545 5.2045C2.74353 5.41548 2.625 5.70163 2.625 6C2.625 6.29837 2.74353 6.58452 2.9545 6.7955C3.16548 7.00647 3.45163 7.125 3.75 7.125ZM20.25 16.875H3.75C3.45163 16.875 3.16548 16.9935 2.9545 17.2045C2.74353 17.4155 2.625 17.7016 2.625 18C2.625 18.2984 2.74353 18.5845 2.9545 18.7955C3.16548 19.0065 3.45163 19.125 3.75 19.125H20.25C20.5484 19.125 20.8345 19.0065 21.0455 18.7955C21.2565 18.5845 21.375 18.2984 21.375 18C21.375 17.7016 21.2565 17.4155 21.0455 17.2045C20.8345 16.9935 20.5484 16.875 20.25 16.875Z"/></symbol><symbol viewBox="0 0 24 24" id="cart" xmlns="http://www.w3.org/2000/svg"><path d="M9.375 20.25C9.375 20.6208 9.26503 20.9834 9.059 21.2917C8.85298 21.6 8.56014 21.8404 8.21753 21.9823C7.87492 22.1242 7.49792 22.1613 7.1342 22.089C6.77049 22.0166 6.4364 21.838 6.17417 21.5758C5.91195 21.3136 5.73337 20.9795 5.66103 20.6158C5.58868 20.2521 5.62581 19.8751 5.76773 19.5325C5.90964 19.1899 6.14996 18.897 6.45831 18.691C6.76665 18.485 7.12916 18.375 7.5 18.375C7.99728 18.375 8.47419 18.5725 8.82582 18.9242C9.17745 19.2758 9.375 19.7527 9.375 20.25ZM17.25 18.375C16.8792 18.375 16.5166 18.485 16.2083 18.691C15.9 18.897 15.6596 19.1899 15.5177 19.5325C15.3758 19.8751 15.3387 20.2521 15.411 20.6158C15.4834 20.9795 15.662 21.3136 15.9242 21.5758C16.1864 21.838 16.5205 22.0166 16.8842 22.089C17.2479 22.1613 17.6249 22.1242 17.9675 21.9823C18.3101 21.8404 18.603 21.6 18.809 21.2917C19.015 20.9834 19.125 20.6208 19.125 20.25C19.125 19.7527 18.9275 19.2758 18.5758 18.9242C18.2242 18.5725 17.7473 18.375 17.25 18.375ZM22.0753 7.08094L19.5169 15.3966C19.3535 15.9343 19.0211 16.4051 18.569 16.739C18.1169 17.0729 17.5692 17.2521 17.0072 17.25H7.77469C7.2046 17.2482 6.65046 17.0616 6.1953 16.7183C5.74015 16.3751 5.40848 15.8936 5.25 15.3459L2.04469 4.125H1.125C0.826631 4.125 0.540483 4.00647 0.329505 3.7955C0.118526 3.58452 0 3.29837 0 3C0 2.70163 0.118526 2.41548 0.329505 2.2045C0.540483 1.99353 0.826631 1.875 1.125 1.875H2.32687C2.73407 1.87626 3.12988 2.00951 3.45493 2.25478C3.77998 2.50004 4.01674 2.84409 4.12969 3.23531L4.81312 5.625H21C21.1761 5.62499 21.3497 5.6663 21.5069 5.74561C21.664 5.82492 21.8004 5.94001 21.905 6.08164C22.0096 6.22326 22.0795 6.38746 22.1091 6.56102C22.1387 6.73458 22.1271 6.91266 22.0753 7.08094ZM19.4766 7.875H5.45531L7.41375 14.7281C7.43617 14.8065 7.48354 14.8755 7.54867 14.9245C7.6138 14.9736 7.69315 15.0001 7.77469 15H17.0072C17.0875 15.0002 17.1656 14.9746 17.2303 14.927C17.2949 14.8794 17.3426 14.8123 17.3662 14.7356L19.4766 7.875Z"/></symbol><symbol viewBox="0 0 25 24" id="cart-arrow" xmlns="http://www.w3.org/2000/svg"><path d="M14.7959 4.4541L21.5459 11.2041C21.6508 11.3086 21.734 11.4328 21.7908 11.5696C21.8476 11.7063 21.8768 11.8529 21.8768 12.001C21.8768 12.149 21.8476 12.2957 21.7908 12.4324C21.734 12.5691 21.6508 12.6933 21.5459 12.7979L14.7959 19.5479C14.5846 19.7592 14.2979 19.8779 13.9991 19.8779C13.7002 19.8779 13.4135 19.7592 13.2022 19.5479C12.9908 19.3365 12.8721 19.0499 12.8721 18.751C12.8721 18.4521 12.9908 18.1654 13.2022 17.9541L18.0313 13.125L4.25 13.125C3.95163 13.125 3.66548 13.0065 3.4545 12.7955C3.24353 12.5846 3.125 12.2984 3.125 12C3.125 11.7017 3.24353 11.4155 3.45451 11.2045C3.66548 10.9936 3.95163 10.875 4.25 10.875L18.0313 10.875L13.2013 6.04598C12.9899 5.83463 12.8712 5.54799 12.8712 5.2491C12.8712 4.95022 12.9899 4.66357 13.2013 4.45223C13.4126 4.24088 13.6992 4.12215 13.9981 4.12215C14.297 4.12215 14.5837 4.24088 14.795 4.45223L14.7959 4.4541Z"/></symbol><symbol viewBox="0 0 24 24" id="cart-promo" xmlns="http://www.w3.org/2000/svg"><path d="M23.0766 12.4857L13.7653 3.17444C13.5917 2.9997 13.3851 2.86115 13.1576 2.76685C12.93 2.67254 12.686 2.62435 12.4397 2.62507H3.75001C3.45164 2.62507 3.16549 2.7436 2.95451 2.95457C2.74353 3.16555 2.62501 3.4517 2.62501 3.75007V12.4398C2.62429 12.6861 2.67248 12.9301 2.76679 13.1576C2.86109 13.3852 2.99963 13.5918 3.17438 13.7654L12.4856 23.0766C12.8372 23.4281 13.3141 23.6256 13.8113 23.6256C14.3084 23.6256 14.7853 23.4281 15.1369 23.0766L23.0766 15.1369C23.4281 14.7853 23.6255 14.3085 23.6255 13.8113C23.6255 13.3141 23.4281 12.8373 23.0766 12.4857ZM13.8113 21.2204L4.87501 12.2813V4.87507H12.2813L21.2175 13.8113L13.8113 21.2204ZM9.37501 7.87507C9.37501 8.17174 9.28703 8.46175 9.12221 8.70842C8.95739 8.9551 8.72312 9.14736 8.44903 9.26089C8.17494 9.37442 7.87334 9.40412 7.58237 9.34625C7.2914 9.28837 7.02413 9.14551 6.81435 8.93573C6.60457 8.72595 6.46171 8.45868 6.40383 8.1677C6.34595 7.87673 6.37566 7.57513 6.48919 7.30104C6.60272 7.02695 6.79498 6.79269 7.04165 6.62786C7.28833 6.46304 7.57834 6.37507 7.87501 6.37507C8.27283 6.37507 8.65436 6.5331 8.93567 6.81441C9.21697 7.09571 9.37501 7.47724 9.37501 7.87507Z" fill-opacity="0.4"/></symbol><symbol viewBox="0 0 16 16" id="color-check" xmlns="http://www.w3.org/2000/svg"><path d="M14.5306 5.03063L6.5306 13.0306C6.46092 13.1005 6.37813 13.156 6.28696 13.1939C6.1958 13.2317 6.09806 13.2512 5.99935 13.2512C5.90064 13.2512 5.8029 13.2317 5.71173 13.1939C5.62057 13.156 5.53778 13.1005 5.4681 13.0306L1.9681 9.53063C1.89833 9.46087 1.84299 9.37804 1.80524 9.28689C1.76748 9.19574 1.74805 9.09804 1.74805 8.99938C1.74805 8.90072 1.76748 8.80302 1.80524 8.71187C1.84299 8.62072 1.89833 8.53789 1.9681 8.46813C2.03786 8.39837 2.12069 8.34302 2.21184 8.30527C2.30299 8.26751 2.40069 8.24808 2.49935 8.24808C2.59801 8.24808 2.69571 8.26751 2.78686 8.30527C2.87801 8.34302 2.96083 8.39837 3.0306 8.46813L5.99997 11.4375L13.4693 3.96938C13.6102 3.82848 13.8013 3.74933 14.0006 3.74933C14.1999 3.74933 14.391 3.82848 14.5318 3.96938C14.6727 4.11028 14.7519 4.30137 14.7519 4.50063C14.7519 4.69989 14.6727 4.89098 14.5318 5.03188L14.5306 5.03063Z"/></symbol><symbol viewBox="0 0 16 16" id="crumbs-arrow" xmlns="http://www.w3.org/2000/svg"><path d="M6.53073 2.46937L11.5307 7.46937C11.6007 7.53905 11.6561 7.62184 11.694 7.71301C11.7318 7.80417 11.7513 7.90191 11.7513 8.00062C11.7513 8.09933 11.7318 8.19707 11.694 8.28824C11.6561 8.3794 11.6007 8.46219 11.5307 8.53187L6.53073 13.5319C6.38984 13.6728 6.19874 13.7519 5.99948 13.7519C5.80023 13.7519 5.60913 13.6728 5.46823 13.5319C5.32734 13.391 5.24818 13.1999 5.24818 13.0006C5.24818 12.8014 5.32734 12.6103 5.46823 12.4694L9.93761 8L5.46761 3.53062C5.32671 3.38973 5.24756 3.19863 5.24756 2.99937C5.24756 2.80011 5.32671 2.60902 5.46761 2.46812C5.60851 2.32723 5.7996 2.24807 5.99886 2.24807C6.19812 2.24807 6.38921 2.32723 6.53011 2.46812L6.53073 2.46937Z" fill-opacity="0.6"/></symbol><symbol viewBox="0 0 24 24" id="delete" xmlns="http://www.w3.org/2000/svg"><path d="M20.25 4.5H16.5V3.75C16.5 3.15326 16.2629 2.58097 15.841 2.15901C15.419 1.73705 14.8467 1.5 14.25 1.5H9.75C9.15326 1.5 8.58097 1.73705 8.15901 2.15901C7.73705 2.58097 7.5 3.15326 7.5 3.75V4.5H3.75C3.55109 4.5 3.36032 4.57902 3.21967 4.71967C3.07902 4.86032 3 5.05109 3 5.25C3 5.44891 3.07902 5.63968 3.21967 5.78033C3.36032 5.92098 3.55109 6 3.75 6H4.5V19.5C4.5 19.8978 4.65804 20.2794 4.93934 20.5607C5.22064 20.842 5.60218 21 6 21H18C18.3978 21 18.7794 20.842 19.0607 20.5607C19.342 20.2794 19.5 19.8978 19.5 19.5V6H20.25C20.4489 6 20.6397 5.92098 20.7803 5.78033C20.921 5.63968 21 5.44891 21 5.25C21 5.05109 20.921 4.86032 20.7803 4.71967C20.6397 4.57902 20.4489 4.5 20.25 4.5ZM10.5 15.75C10.5 15.9489 10.421 16.1397 10.2803 16.2803C10.1397 16.421 9.94891 16.5 9.75 16.5C9.55109 16.5 9.36032 16.421 9.21967 16.2803C9.07902 16.1397 9 15.9489 9 15.75V9.75C9 9.55109 9.07902 9.36032 9.21967 9.21967C9.36032 9.07902 9.55109 9 9.75 9C9.94891 9 10.1397 9.07902 10.2803 9.21967C10.421 9.36032 10.5 9.55109 10.5 9.75V15.75ZM15 15.75C15 15.9489 14.921 16.1397 14.7803 16.2803C14.6397 16.421 14.4489 16.5 14.25 16.5C14.0511 16.5 13.8603 16.421 13.7197 16.2803C13.579 16.1397 13.5 15.9489 13.5 15.75V9.75C13.5 9.55109 13.579 9.36032 13.7197 9.21967C13.8603 9.07902 14.0511 9 14.25 9C14.4489 9 14.6397 9.07902 14.7803 9.21967C14.921 9.36032 15 9.55109 15 9.75V15.75ZM15 4.5H9V3.75C9 3.55109 9.07902 3.36032 9.21967 3.21967C9.36032 3.07902 9.55109 3 9.75 3H14.25C14.4489 3 14.6397 3.07902 14.7803 3.21967C14.921 3.36032 15 3.55109 15 3.75V4.5Z"/></symbol><symbol viewBox="0 0 8 13" id="facebook" xmlns="http://www.w3.org/2000/svg"><path d="M2.70873 12.3038V6.75026H0.839844V4.58594H2.70873V2.98981C2.70873 1.13752 3.84005 0.128906 5.49242 0.128906C6.28392 0.128906 6.96418 0.187836 7.16243 0.214175V2.14993L6.01642 2.15045C5.11776 2.15045 4.94376 2.57748 4.94376 3.20411V4.58594H7.08697L6.80791 6.75026H4.94376V12.3038H2.70873Z"/></symbol><symbol viewBox="0 0 22 20" id="filter" xmlns="http://www.w3.org/2000/svg"><path d="M12.125 9.625V18.25C12.125 18.5484 12.0065 18.8345 11.7955 19.0455C11.5845 19.2565 11.2984 19.375 11 19.375C10.7016 19.375 10.4155 19.2565 10.2045 19.0455C9.99353 18.8345 9.875 18.5484 9.875 18.25V9.625C9.875 9.32663 9.99353 9.04048 10.2045 8.8295C10.4155 8.61853 10.7016 8.5 11 8.5C11.2984 8.5 11.5845 8.61853 11.7955 8.8295C12.0065 9.04048 12.125 9.32663 12.125 9.625ZM17.75 16C17.4516 16 17.1655 16.1185 16.9545 16.3295C16.7435 16.5405 16.625 16.8266 16.625 17.125V18.25C16.625 18.5484 16.7435 18.8345 16.9545 19.0455C17.1655 19.2565 17.4516 19.375 17.75 19.375C18.0484 19.375 18.3345 19.2565 18.5455 19.0455C18.7565 18.8345 18.875 18.5484 18.875 18.25V17.125C18.875 16.8266 18.7565 16.5405 18.5455 16.3295C18.3345 16.1185 18.0484 16 17.75 16ZM20 12.25H18.875V1.75C18.875 1.45163 18.7565 1.16548 18.5455 0.954505C18.3345 0.743526 18.0484 0.625 17.75 0.625C17.4516 0.625 17.1655 0.743526 16.9545 0.954505C16.7435 1.16548 16.625 1.45163 16.625 1.75V12.25H15.5C15.2016 12.25 14.9155 12.3685 14.7045 12.5795C14.4935 12.7905 14.375 13.0766 14.375 13.375C14.375 13.6734 14.4935 13.9595 14.7045 14.1705C14.9155 14.3815 15.2016 14.5 15.5 14.5H20C20.2984 14.5 20.5845 14.3815 20.7955 14.1705C21.0065 13.9595 21.125 13.6734 21.125 13.375C21.125 13.0766 21.0065 12.7905 20.7955 12.5795C20.5845 12.3685 20.2984 12.25 20 12.25ZM4.25 13C3.95163 13 3.66548 13.1185 3.4545 13.3295C3.24353 13.5405 3.125 13.8266 3.125 14.125V18.25C3.125 18.5484 3.24353 18.8345 3.4545 19.0455C3.66548 19.2565 3.95163 19.375 4.25 19.375C4.54837 19.375 4.83452 19.2565 5.0455 19.0455C5.25647 18.8345 5.375 18.5484 5.375 18.25V14.125C5.375 13.8266 5.25647 13.5405 5.0455 13.3295C4.83452 13.1185 4.54837 13 4.25 13ZM6.5 9.25H5.375V1.75C5.375 1.45163 5.25647 1.16548 5.0455 0.954505C4.83452 0.743526 4.54837 0.625 4.25 0.625C3.95163 0.625 3.66548 0.743526 3.4545 0.954505C3.24353 1.16548 3.125 1.45163 3.125 1.75V9.25H2C1.70163 9.25 1.41548 9.36853 1.2045 9.5795C0.993526 9.79048 0.875 10.0766 0.875 10.375C0.875 10.6734 0.993526 10.9595 1.2045 11.1705C1.41548 11.3815 1.70163 11.5 2 11.5H6.5C6.79837 11.5 7.08452 11.3815 7.2955 11.1705C7.50647 10.9595 7.625 10.6734 7.625 10.375C7.625 10.0766 7.50647 9.79048 7.2955 9.5795C7.08452 9.36853 6.79837 9.25 6.5 9.25ZM13.25 4.75H12.125V1.75C12.125 1.45163 12.0065 1.16548 11.7955 0.954505C11.5845 0.743526 11.2984 0.625 11 0.625C10.7016 0.625 10.4155 0.743526 10.2045 0.954505C9.99353 1.16548 9.875 1.45163 9.875 1.75V4.75H8.75C8.45163 4.75 8.16548 4.86853 7.9545 5.0795C7.74353 5.29048 7.625 5.57663 7.625 5.875C7.625 6.17337 7.74353 6.45952 7.9545 6.6705C8.16548 6.88147 8.45163 7 8.75 7H13.25C13.5484 7 13.8345 6.88147 14.0455 6.6705C14.2565 6.45952 14.375 6.17337 14.375 5.875C14.375 5.57663 14.2565 5.29048 14.0455 5.0795C13.8345 4.86853 13.5484 4.75 13.25 4.75Z"/></symbol><symbol viewBox="0 0 24 24" id="filter-add" xmlns="http://www.w3.org/2000/svg"><path d="M23.0766 12.4857L13.7653 3.17444C13.5917 2.9997 13.3851 2.86115 13.1576 2.76685C12.93 2.67254 12.686 2.62435 12.4397 2.62507H3.75001C3.45164 2.62507 3.16549 2.7436 2.95451 2.95457C2.74353 3.16555 2.62501 3.4517 2.62501 3.75007V12.4398C2.62429 12.6861 2.67248 12.9301 2.76679 13.1576C2.86109 13.3852 2.99963 13.5918 3.17438 13.7654L12.4856 23.0766C12.8372 23.4281 13.3141 23.6256 13.8113 23.6256C14.3084 23.6256 14.7853 23.4281 15.1369 23.0766L23.0766 15.1369C23.4281 14.7853 23.6255 14.3085 23.6255 13.8113C23.6255 13.3141 23.4281 12.8373 23.0766 12.4857ZM13.8113 21.2204L4.87501 12.2813V4.87507H12.2813L21.2175 13.8113L13.8113 21.2204ZM9.37501 7.87507C9.37501 8.17174 9.28703 8.46175 9.12221 8.70842C8.95739 8.9551 8.72312 9.14736 8.44903 9.26089C8.17494 9.37442 7.87334 9.40412 7.58237 9.34625C7.2914 9.28837 7.02413 9.14551 6.81435 8.93573C6.60457 8.72595 6.46171 8.45868 6.40383 8.1677C6.34595 7.87673 6.37566 7.57513 6.48919 7.30104C6.60272 7.02695 6.79498 6.79269 7.04165 6.62786C7.28833 6.46304 7.57834 6.37507 7.87501 6.37507C8.27283 6.37507 8.65436 6.5331 8.93567 6.81441C9.21697 7.09571 9.37501 7.47724 9.37501 7.87507Z" fill-opacity="0.4"/></symbol><symbol viewBox="0 0 16 16" id="filter-arrow" xmlns="http://www.w3.org/2000/svg"><path d="M6.53073 2.4694L11.5307 7.4694C11.6007 7.53908 11.6561 7.62187 11.694 7.71304C11.7318 7.8042 11.7513 7.90194 11.7513 8.00065C11.7513 8.09936 11.7318 8.1971 11.694 8.28827C11.6561 8.37943 11.6007 8.46222 11.5307 8.5319L6.53073 13.5319C6.38984 13.6728 6.19874 13.752 5.99948 13.752C5.80023 13.752 5.60913 13.6728 5.46823 13.5319C5.32734 13.391 5.24818 13.1999 5.24818 13.0007C5.24818 12.8014 5.32734 12.6103 5.46823 12.4694L9.93761 8.00003L5.46761 3.53065C5.32671 3.38976 5.24756 3.19866 5.24756 2.9994C5.24756 2.80015 5.32671 2.60905 5.46761 2.46815C5.60851 2.32726 5.7996 2.2481 5.99886 2.2481C6.19812 2.2481 6.38921 2.32726 6.53011 2.46815L6.53073 2.4694Z" fill-opacity="0.6"/></symbol><symbol viewBox="0 0 16 16" id="filter-btn" xmlns="http://www.w3.org/2000/svg"><path d="M8.75 7.75V13.5C8.75 13.6989 8.67098 13.8897 8.53033 14.0303C8.38968 14.171 8.19891 14.25 8 14.25C7.80109 14.25 7.61032 14.171 7.46967 14.0303C7.32902 13.8897 7.25 13.6989 7.25 13.5V7.75C7.25 7.55109 7.32902 7.36032 7.46967 7.21967C7.61032 7.07902 7.80109 7 8 7C8.19891 7 8.38968 7.07902 8.53033 7.21967C8.67098 7.36032 8.75 7.55109 8.75 7.75ZM12.5 12C12.3011 12 12.1103 12.079 11.9697 12.2197C11.829 12.3603 11.75 12.5511 11.75 12.75V13.5C11.75 13.6989 11.829 13.8897 11.9697 14.0303C12.1103 14.171 12.3011 14.25 12.5 14.25C12.6989 14.25 12.8897 14.171 13.0303 14.0303C13.171 13.8897 13.25 13.6989 13.25 13.5V12.75C13.25 12.5511 13.171 12.3603 13.0303 12.2197C12.8897 12.079 12.6989 12 12.5 12ZM14 9.5H13.25V2.5C13.25 2.30109 13.171 2.11032 13.0303 1.96967C12.8897 1.82902 12.6989 1.75 12.5 1.75C12.3011 1.75 12.1103 1.82902 11.9697 1.96967C11.829 2.11032 11.75 2.30109 11.75 2.5V9.5H11C10.8011 9.5 10.6103 9.57902 10.4697 9.71967C10.329 9.86032 10.25 10.0511 10.25 10.25C10.25 10.4489 10.329 10.6397 10.4697 10.7803C10.6103 10.921 10.8011 11 11 11H14C14.1989 11 14.3897 10.921 14.5303 10.7803C14.671 10.6397 14.75 10.4489 14.75 10.25C14.75 10.0511 14.671 9.86032 14.5303 9.71967C14.3897 9.57902 14.1989 9.5 14 9.5ZM3.5 10C3.30109 10 3.11032 10.079 2.96967 10.2197C2.82902 10.3603 2.75 10.5511 2.75 10.75V13.5C2.75 13.6989 2.82902 13.8897 2.96967 14.0303C3.11032 14.171 3.30109 14.25 3.5 14.25C3.69891 14.25 3.88968 14.171 4.03033 14.0303C4.17098 13.8897 4.25 13.6989 4.25 13.5V10.75C4.25 10.5511 4.17098 10.3603 4.03033 10.2197C3.88968 10.079 3.69891 10 3.5 10ZM5 7.5H4.25V2.5C4.25 2.30109 4.17098 2.11032 4.03033 1.96967C3.88968 1.82902 3.69891 1.75 3.5 1.75C3.30109 1.75 3.11032 1.82902 2.96967 1.96967C2.82902 2.11032 2.75 2.30109 2.75 2.5V7.5H2C1.80109 7.5 1.61032 7.57902 1.46967 7.71967C1.32902 7.86032 1.25 8.05109 1.25 8.25C1.25 8.44891 1.32902 8.63968 1.46967 8.78033C1.61032 8.92098 1.80109 9 2 9H5C5.19891 9 5.38968 8.92098 5.53033 8.78033C5.67098 8.63968 5.75 8.44891 5.75 8.25C5.75 8.05109 5.67098 7.86032 5.53033 7.71967C5.38968 7.57902 5.19891 7.5 5 7.5ZM9.5 4.5H8.75V2.5C8.75 2.30109 8.67098 2.11032 8.53033 1.96967C8.38968 1.82902 8.19891 1.75 8 1.75C7.80109 1.75 7.61032 1.82902 7.46967 1.96967C7.32902 2.11032 7.25 2.30109 7.25 2.5V4.5H6.5C6.30109 4.5 6.11032 4.57902 5.96967 4.71967C5.82902 4.86032 5.75 5.05109 5.75 5.25C5.75 5.44891 5.82902 5.63968 5.96967 5.78033C6.11032 5.92098 6.30109 6 6.5 6H9.5C9.69891 6 9.88968 5.92098 10.0303 5.78033C10.171 5.63968 10.25 5.44891 10.25 5.25C10.25 5.05109 10.171 4.86032 10.0303 4.71967C9.88968 4.57902 9.69891 4.5 9.5 4.5Z"/></symbol><symbol viewBox="0 0 24 25" id="filter-close" xmlns="http://www.w3.org/2000/svg"><path d="M19.5459 18.4541C19.7572 18.6654 19.876 18.952 19.876 19.2509C19.876 19.5498 19.7572 19.8365 19.5459 20.0478C19.3346 20.2592 19.0479 20.3779 18.749 20.3779C18.4501 20.3779 18.1635 20.2592 17.9521 20.0478L12 14.0937L6.0459 20.0459C5.83455 20.2573 5.54791 20.376 5.24902 20.376C4.95014 20.376 4.66349 20.2573 4.45215 20.0459C4.2408 19.8346 4.12207 19.5479 4.12207 19.2491C4.12207 18.9502 4.2408 18.6635 4.45215 18.4522L10.4062 12.5L4.45402 6.54593C4.24268 6.33459 4.12395 6.04795 4.12395 5.74906C4.12395 5.45017 4.24268 5.16353 4.45402 4.95218C4.66537 4.74084 4.95201 4.62211 5.2509 4.62211C5.54978 4.62211 5.83643 4.74084 6.04777 4.95218L12 10.9062L17.954 4.95125C18.1654 4.7399 18.452 4.62117 18.7509 4.62117C19.0498 4.62117 19.3364 4.7399 19.5478 4.95125C19.7591 5.16259 19.8778 5.44924 19.8778 5.74812C19.8778 6.04701 19.7591 6.33365 19.5478 6.545L13.5937 12.5L19.5459 18.4541Z" fill-opacity="0.4"/></symbol><symbol viewBox="0 0 24 25" id="filters-icon" xmlns="http://www.w3.org/2000/svg"><path d="M13.125 12.125V20.75C13.125 21.0484 13.0065 21.3345 12.7955 21.5455C12.5845 21.7565 12.2984 21.875 12 21.875C11.7016 21.875 11.4155 21.7565 11.2045 21.5455C10.9935 21.3345 10.875 21.0484 10.875 20.75V12.125C10.875 11.8266 10.9935 11.5405 11.2045 11.3295C11.4155 11.1185 11.7016 11 12 11C12.2984 11 12.5845 11.1185 12.7955 11.3295C13.0065 11.5405 13.125 11.8266 13.125 12.125ZM18.75 18.5C18.4516 18.5 18.1655 18.6185 17.9545 18.8295C17.7435 19.0405 17.625 19.3266 17.625 19.625V20.75C17.625 21.0484 17.7435 21.3345 17.9545 21.5455C18.1655 21.7565 18.4516 21.875 18.75 21.875C19.0484 21.875 19.3345 21.7565 19.5455 21.5455C19.7565 21.3345 19.875 21.0484 19.875 20.75V19.625C19.875 19.3266 19.7565 19.0405 19.5455 18.8295C19.3345 18.6185 19.0484 18.5 18.75 18.5ZM21 14.75H19.875V4.25C19.875 3.95163 19.7565 3.66548 19.5455 3.4545C19.3345 3.24353 19.0484 3.125 18.75 3.125C18.4516 3.125 18.1655 3.24353 17.9545 3.4545C17.7435 3.66548 17.625 3.95163 17.625 4.25V14.75H16.5C16.2016 14.75 15.9155 14.8685 15.7045 15.0795C15.4935 15.2905 15.375 15.5766 15.375 15.875C15.375 16.1734 15.4935 16.4595 15.7045 16.6705C15.9155 16.8815 16.2016 17 16.5 17H21C21.2984 17 21.5845 16.8815 21.7955 16.6705C22.0065 16.4595 22.125 16.1734 22.125 15.875C22.125 15.5766 22.0065 15.2905 21.7955 15.0795C21.5845 14.8685 21.2984 14.75 21 14.75ZM5.25 15.5C4.95163 15.5 4.66548 15.6185 4.4545 15.8295C4.24353 16.0405 4.125 16.3266 4.125 16.625V20.75C4.125 21.0484 4.24353 21.3345 4.4545 21.5455C4.66548 21.7565 4.95163 21.875 5.25 21.875C5.54837 21.875 5.83452 21.7565 6.0455 21.5455C6.25647 21.3345 6.375 21.0484 6.375 20.75V16.625C6.375 16.3266 6.25647 16.0405 6.0455 15.8295C5.83452 15.6185 5.54837 15.5 5.25 15.5ZM7.5 11.75H6.375V4.25C6.375 3.95163 6.25647 3.66548 6.0455 3.4545C5.83452 3.24353 5.54837 3.125 5.25 3.125C4.95163 3.125 4.66548 3.24353 4.4545 3.4545C4.24353 3.66548 4.125 3.95163 4.125 4.25V11.75H3C2.70163 11.75 2.41548 11.8685 2.2045 12.0795C1.99353 12.2905 1.875 12.5766 1.875 12.875C1.875 13.1734 1.99353 13.4595 2.2045 13.6705C2.41548 13.8815 2.70163 14 3 14H7.5C7.79837 14 8.08452 13.8815 8.2955 13.6705C8.50647 13.4595 8.625 13.1734 8.625 12.875C8.625 12.5766 8.50647 12.2905 8.2955 12.0795C8.08452 11.8685 7.79837 11.75 7.5 11.75ZM14.25 7.25H13.125V4.25C13.125 3.95163 13.0065 3.66548 12.7955 3.4545C12.5845 3.24353 12.2984 3.125 12 3.125C11.7016 3.125 11.4155 3.24353 11.2045 3.4545C10.9935 3.66548 10.875 3.95163 10.875 4.25V7.25H9.75C9.45163 7.25 9.16548 7.36853 8.9545 7.5795C8.74353 7.79048 8.625 8.07663 8.625 8.375C8.625 8.67337 8.74353 8.95952 8.9545 9.1705C9.16548 9.38147 9.45163 9.5 9.75 9.5H14.25C14.5484 9.5 14.8345 9.38147 15.0455 9.1705C15.2565 8.95952 15.375 8.67337 15.375 8.375C15.375 8.07663 15.2565 7.79048 15.0455 7.5795C14.8345 7.36853 14.5484 7.25 14.25 7.25Z" fill-opacity="0.4"/></symbol><symbol viewBox="0 0 14 13" id="github" xmlns="http://www.w3.org/2000/svg"><path fill-rule="evenodd" clip-rule="evenodd" d="M6.60685 0.226562C3.01591 0.226562 0.126953 3.11552 0.126953 6.70646C0.126953 9.56841 1.98992 11.9984 4.55488 12.8624C4.87888 12.9164 4.98688 12.7274 4.98688 12.5384C4.98688 12.3764 4.98688 11.9714 4.98688 11.4314C3.1779 11.8364 2.79991 10.5674 2.79991 10.5674C2.50291 9.81141 2.07092 9.62241 2.07092 9.62241C1.47693 9.21742 2.12492 9.21742 2.12492 9.21742C2.77291 9.27142 3.1239 9.89241 3.1239 9.89241C3.6909 10.8914 4.63588 10.5944 5.01387 10.4324C5.06787 10.0004 5.22987 9.73041 5.41887 9.56841C3.98789 9.40642 2.47592 8.83942 2.47592 6.35546C2.47592 5.65347 2.71891 5.05948 3.1509 4.62749C3.09691 4.46549 2.85391 3.8175 3.2049 2.89952C3.2049 2.89952 3.74489 2.73752 4.98688 3.57451C5.49987 3.43951 6.06686 3.35851 6.60685 3.35851C7.14684 3.35851 7.71383 3.43951 8.22682 3.57451C9.4688 2.73752 10.0088 2.89952 10.0088 2.89952C10.3598 3.79051 10.1438 4.43849 10.0628 4.62749C10.4678 5.08648 10.7378 5.65347 10.7378 6.35546C10.7378 8.83942 9.22581 9.37942 7.76783 9.54141C8.01083 9.73041 8.19982 10.1354 8.19982 10.7294C8.19982 11.5934 8.19982 12.2954 8.19982 12.5114C8.19982 12.6734 8.30782 12.8894 8.65882 12.8354C11.2238 11.9984 13.0867 9.56841 13.0867 6.70646C13.0867 3.11552 10.1978 0.226562 6.60685 0.226562Z"/></symbol><symbol viewBox="0 0 16 16" id="header-arrow" xmlns="http://www.w3.org/2000/svg"><path d="M13.5306 6.53063L8.53063 11.5306C8.46095 11.6005 8.37816 11.656 8.28699 11.6939C8.19583 11.7317 8.09809 11.7512 7.99938 11.7512C7.90067 11.7512 7.80293 11.7317 7.71176 11.6939C7.6206 11.656 7.53781 11.6005 7.46813 11.5306L2.46813 6.53063C2.32723 6.38973 2.24808 6.19864 2.24808 5.99938C2.24808 5.80012 2.32723 5.60902 2.46813 5.46813C2.60902 5.32723 2.80012 5.24808 2.99938 5.24808C3.19864 5.24808 3.38973 5.32723 3.53063 5.46813L8 9.9375L12.4694 5.4675C12.6103 5.32661 12.8014 5.24745 13.0006 5.24745C13.1999 5.24745 13.391 5.32661 13.5319 5.4675C13.6728 5.6084 13.7519 5.7995 13.7519 5.99875C13.7519 6.19801 13.6728 6.38911 13.5319 6.53L13.5306 6.53063Z"/></symbol><symbol viewBox="0 0 24 24" id="header-search" xmlns="http://www.w3.org/2000/svg"><path d="M21.7959 20.2041L17.3437 15.75C18.6787 14.0104 19.3019 11.8282 19.087 9.64607C18.8722 7.4639 17.8353 5.44516 16.1867 3.99937C14.5382 2.55357 12.4014 1.78899 10.2098 1.86071C8.01829 1.93244 5.93607 2.8351 4.38558 4.38559C2.83509 5.93608 1.93243 8.0183 1.8607 10.2098C1.78898 12.4014 2.55356 14.5382 3.99936 16.1867C5.44515 17.8353 7.46389 18.8722 9.64606 19.087C11.8282 19.3019 14.0104 18.6787 15.75 17.3438L20.2059 21.8006C20.3106 21.9053 20.4348 21.9883 20.5715 22.0449C20.7083 22.1016 20.8548 22.1307 21.0028 22.1307C21.1508 22.1307 21.2973 22.1016 21.4341 22.0449C21.5708 21.9883 21.695 21.9053 21.7997 21.8006C21.9043 21.696 21.9873 21.5717 22.044 21.435C22.1006 21.2983 22.1298 21.1517 22.1298 21.0037C22.1298 20.8558 22.1006 20.7092 22.044 20.5725C21.9873 20.4358 21.9043 20.3115 21.7997 20.2069L21.7959 20.2041ZM4.12499 10.5C4.12499 9.23915 4.49888 8.0066 5.19938 6.95824C5.89987 5.90988 6.89551 5.09278 8.06039 4.61027C9.22527 4.12776 10.5071 4.00151 11.7437 4.2475C12.9803 4.49348 14.1162 5.10064 15.0078 5.9922C15.8994 6.88376 16.5065 8.01967 16.7525 9.2563C16.9985 10.4929 16.8722 11.7747 16.3897 12.9396C15.9072 14.1045 15.0901 15.1001 14.0418 15.8006C12.9934 16.5011 11.7608 16.875 10.5 16.875C8.80977 16.8733 7.18927 16.2011 5.99411 15.0059C4.79894 13.8107 4.12673 12.1902 4.12499 10.5Z"/></symbol><symbol viewBox="0 0 14 14" id="instagram" xmlns="http://www.w3.org/2000/svg"><path d="M7.00076 1.44721C8.80947 1.44721 9.02366 1.45398 9.73818 1.48656C10.1678 1.49182 10.5933 1.5707 10.9962 1.71979C11.2884 1.83248 11.5538 2.00511 11.7753 2.22656C11.9967 2.44802 12.1694 2.71339 12.282 3.00559C12.4311 3.40853 12.51 3.83406 12.5153 4.26366C12.5475 4.97817 12.5546 5.19237 12.5546 7.00108C12.5546 8.80979 12.5479 9.02398 12.5153 9.7385C12.51 10.1681 12.4311 10.5936 12.282 10.9966C12.1694 11.2888 11.9967 11.5541 11.7753 11.7756C11.5538 11.997 11.2884 12.1697 10.9962 12.2824C10.5933 12.4315 10.1678 12.5103 9.73818 12.5156C9.02398 12.5479 8.80979 12.5549 7.00076 12.5549C5.19172 12.5549 4.97753 12.5482 4.26334 12.5156C3.83373 12.5103 3.40821 12.4315 3.00527 12.2824C2.71307 12.1697 2.44769 11.997 2.22624 11.7756C2.00479 11.5541 1.83216 11.2888 1.71947 10.9966C1.57038 10.5936 1.4915 10.1681 1.48624 9.7385C1.45398 9.02398 1.44689 8.80979 1.44689 7.00108C1.44689 5.19237 1.45366 4.97817 1.48624 4.26366C1.4915 3.83406 1.57038 3.40853 1.71947 3.00559C1.83216 2.71339 2.00479 2.44802 2.22624 2.22656C2.44769 2.00511 2.71307 1.83248 3.00527 1.71979C3.40821 1.5707 3.83373 1.49182 4.26334 1.48656C4.97785 1.4543 5.19205 1.44721 7.00076 1.44721ZM7.00076 0.226562C5.16205 0.226562 4.93043 0.234304 4.20785 0.267208C3.64561 0.278391 3.08934 0.384847 2.56269 0.582046C2.11092 0.752261 1.70172 1.019 1.36366 1.36366C1.01869 1.70184 0.751722 2.11127 0.581401 2.56334C0.384201 3.08998 0.277746 3.64625 0.266563 4.2085C0.234304 4.93043 0.226562 5.16205 0.226562 7.00076C0.226562 8.83946 0.234304 9.07108 0.267208 9.79366C0.278391 10.3559 0.384847 10.9122 0.582046 11.4388C0.752178 11.8908 1.01892 12.3002 1.36366 12.6385C1.70191 12.9832 2.11133 13.25 2.56334 13.4201C3.08998 13.6173 3.64626 13.7238 4.2085 13.7349C4.93108 13.7672 5.16172 13.7756 7.0014 13.7756C8.84108 13.7756 9.07172 13.7679 9.7943 13.7349C10.3565 13.7238 10.9128 13.6173 11.4395 13.4201C11.8893 13.2457 12.2978 12.9794 12.6389 12.6381C12.98 12.2968 13.246 11.8882 13.4201 11.4382C13.6173 10.9115 13.7238 10.3553 13.735 9.79301C13.7672 9.07108 13.775 8.83946 13.775 7.00076C13.775 5.16205 13.7672 4.93043 13.7343 4.20785C13.7231 3.64561 13.6167 3.08934 13.4195 2.56269C13.2493 2.11068 12.9826 1.70126 12.6379 1.36301C12.2996 1.01828 11.8902 0.751533 11.4382 0.581401C10.9115 0.384201 10.3553 0.277746 9.79301 0.266563C9.07108 0.234304 8.83947 0.226562 7.00076 0.226562Z"/><path d="M7.00215 3.52344C6.31413 3.52344 5.64155 3.72746 5.06948 4.10971C4.49741 4.49195 4.05154 5.03525 3.78824 5.6709C3.52494 6.30655 3.45605 7.00601 3.59028 7.68081C3.72451 8.35561 4.05582 8.97546 4.54233 9.46197C5.02884 9.94847 5.64868 10.2798 6.32349 10.414C6.99829 10.5482 7.69774 10.4794 8.33339 10.2161C8.96904 9.95276 9.51234 9.50689 9.89459 8.93481C10.2768 8.36274 10.4809 7.69017 10.4809 7.00215C10.4809 6.07954 10.1144 5.19471 9.46197 4.54233C8.80958 3.88994 7.92476 3.52344 7.00215 3.52344ZM7.00215 9.26021C6.55555 9.26021 6.11897 9.12778 5.74764 8.87966C5.3763 8.63154 5.08688 8.27888 4.91597 7.86627C4.74506 7.45366 4.70034 6.99964 4.78747 6.56162C4.8746 6.1236 5.08966 5.72125 5.40546 5.40545C5.72125 5.08966 6.1236 4.8746 6.56162 4.78747C6.99964 4.70034 7.45367 4.74506 7.86627 4.91597C8.27888 5.08687 8.63154 5.3763 8.87966 5.74763C9.12778 6.11897 9.26021 6.55554 9.26021 7.00215C9.26021 7.60102 9.02231 8.17537 8.59884 8.59884C8.17537 9.02231 7.60102 9.26021 7.00215 9.26021Z"/><path d="M10.6176 4.19807C11.0665 4.19807 11.4305 3.83412 11.4305 3.38517C11.4305 2.93621 11.0665 2.57227 10.6176 2.57227C10.1686 2.57227 9.80469 2.93621 9.80469 3.38517C9.80469 3.83412 10.1686 4.19807 10.6176 4.19807Z"/></symbol><symbol viewBox="0 0 159 25" id="logo" xmlns="http://www.w3.org/2000/svg"><path d="M11.6 24.7467C3.86667 24.72 0.213333 22.32 0.4 16.5067H7.04C7.12 18.0267 8.4 18.96 11.6 18.9867C14.4267 19.0133 15.7333 18.2133 15.7333 17.1733C15.7333 16.4533 15.3333 15.7067 13.1467 15.3867L10.2667 14.9333C6.02667 14.24 0.933333 13.7333 0.933333 8C0.933333 3.57333 4.53333 0.853333 11.6533 0.853333C18.08 0.853333 22.56 2.64 22.4267 9.04H15.84C15.5733 7.54667 14.32 6.61333 11.4933 6.61333C9.04 6.61333 8.02667 7.36 8.02667 8.37333C8.02667 9.01333 8.42667 9.78667 10.1333 10.0533L12.5067 10.4533C16.96 11.2 23.0667 11.3333 23.0667 17.4667C23.0667 22.3467 19.28 24.7733 11.6 24.7467ZM40.5446 1.6H47.9313V24H40.5446V15.8933H31.8513V24H24.4646V1.6H31.8513V9.70667H40.5446V1.6ZM62.1017 24.7467C54.395 24.7467 49.4083 19.9733 49.4083 12.8C49.4083 5.62667 54.395 0.853333 62.1017 0.853333C69.8083 0.853333 74.795 5.62667 74.795 12.8C74.795 19.9733 69.8083 24.7467 62.1017 24.7467ZM62.1017 18.3733C65.035 18.3733 67.4617 16.3467 67.4617 12.8C67.4617 9.25333 65.035 7.22667 62.1017 7.22667C59.1683 7.22667 56.7417 9.25333 56.7417 12.8C56.7417 16.3467 59.1683 18.3733 62.1017 18.3733ZM76.2771 24V1.6H88.9971C95.1038 1.6 98.7304 4.32 98.7304 10.3467C98.7304 16.3733 95.1038 19.0933 89.0238 19.0933H83.6638V24H76.2771ZM83.6638 12.96H88.3571C90.1438 12.96 91.2904 12.08 91.2904 10.3467C91.2904 8.61333 90.1438 7.73333 88.3837 7.73333H83.6638V12.96ZM102.426 24.4267C100.426 24.4267 98.7458 22.7733 98.7458 20.8C98.7458 18.8267 100.426 17.1733 102.426 17.1733C104.426 17.1733 106.106 18.8267 106.106 20.8C106.106 22.7733 104.426 24.4267 102.426 24.4267ZM120.151 24.7467C112.605 24.7467 107.565 19.9733 107.565 12.8C107.565 5.62667 112.605 0.853333 120.151 0.853333C125.618 0.853333 131.218 3.25333 131.965 10.8267H124.925C124.311 8.37333 122.578 7.22667 120.151 7.22667C117.218 7.22667 114.898 9.41333 114.898 12.8C114.898 16.1867 117.218 18.3733 120.151 18.3733C122.578 18.3733 124.311 17.2267 124.925 14.72H131.965C131.218 22.3467 125.671 24.7467 120.151 24.7467ZM146.008 24.7467C138.301 24.7467 133.315 19.9733 133.315 12.8C133.315 5.62667 138.301 0.853333 146.008 0.853333C153.715 0.853333 158.701 5.62667 158.701 12.8C158.701 19.9733 153.715 24.7467 146.008 24.7467ZM146.008 18.3733C148.941 18.3733 151.368 16.3467 151.368 12.8C151.368 9.25333 148.941 7.22667 146.008 7.22667C143.075 7.22667 140.648 9.25333 140.648 12.8C140.648 16.3467 143.075 18.3733 146.008 18.3733Z"/></symbol><symbol viewBox="0 0 8 13" id="logo-fb-simple_2" xmlns="http://www.w3.org/2000/svg"><path d="M2.70873 12.3038V6.75026H0.839844V4.58594H2.70873V2.98981C2.70873 1.13752 3.84005 0.128906 5.49242 0.128906C6.28392 0.128906 6.96418 0.187836 7.16243 0.214175V2.14993L6.01642 2.15045C5.11776 2.15045 4.94376 2.57748 4.94376 3.20411V4.58594H7.08697L6.80791 6.75026H4.94376V12.3038H2.70873Z"/></symbol><symbol viewBox="0 0 24 24" id="mail" xmlns="http://www.w3.org/2000/svg"><path d="M21 4.125H3C2.70163 4.125 2.41548 4.24353 2.2045 4.4545C1.99353 4.66548 1.875 4.95163 1.875 5.25V18C1.875 18.4973 2.07254 18.9742 2.42417 19.3258C2.77581 19.6775 3.25272 19.875 3.75 19.875H20.25C20.7473 19.875 21.2242 19.6775 21.5758 19.3258C21.9275 18.9742 22.125 18.4973 22.125 18V5.25C22.125 4.95163 22.0065 4.66548 21.7955 4.4545C21.5845 4.24353 21.2984 4.125 21 4.125ZM12 11.9738L5.89219 6.375H18.1078L12 11.9738ZM8.69906 12L4.125 16.1925V7.8075L8.69906 12ZM10.3641 13.5262L11.2397 14.3297C11.4472 14.52 11.7185 14.6255 12 14.6255C12.2815 14.6255 12.5528 14.52 12.7603 14.3297L13.6359 13.5262L18.1078 17.625H5.89219L10.3641 13.5262ZM15.3009 12L19.875 7.8075V16.1925L15.3009 12Z" fill-opacity="0.4"/></symbol><symbol viewBox="0 0 20 4" id="minus" xmlns="http://www.w3.org/2000/svg"><path d="M19.375 2C19.375 2.29837 19.2565 2.58452 19.0455 2.79549C18.8345 3.00647 18.5484 3.125 18.25 3.125H1.75C1.45163 3.125 1.16548 3.00647 0.954505 2.79549C0.743526 2.58452 0.625 2.29837 0.625 2C0.625 1.70163 0.743526 1.41548 0.954505 1.2045C1.16548 0.993526 1.45163 0.875 1.75 0.875H18.25C18.5484 0.875 18.8345 0.993526 19.0455 1.2045C19.2565 1.41548 19.375 1.70163 19.375 2Z"/></symbol><symbol viewBox="0 0 24 24" id="more-btn" xmlns="http://www.w3.org/2000/svg"><path d="M14.625 12C14.625 12.5192 14.471 13.0267 14.1826 13.4584C13.8942 13.8901 13.4842 14.2265 13.0045 14.4252C12.5249 14.6239 11.9971 14.6758 11.4879 14.5746C10.9787 14.4733 10.511 14.2233 10.1438 13.8562C9.77673 13.489 9.52673 13.0213 9.42544 12.5121C9.32415 12.0029 9.37614 11.4751 9.57482 10.9955C9.7735 10.5158 10.11 10.1058 10.5416 9.81739C10.9733 9.52895 11.4808 9.375 12 9.375C12.6962 9.375 13.3639 9.65156 13.8562 10.1438C14.3484 10.6361 14.625 11.3038 14.625 12ZM4.5 9.375C3.98083 9.375 3.47331 9.52895 3.04163 9.81739C2.60995 10.1058 2.2735 10.5158 2.07482 10.9955C1.87614 11.4751 1.82415 12.0029 1.92544 12.5121C2.02673 13.0213 2.27673 13.489 2.64385 13.8562C3.01096 14.2233 3.47869 14.4733 3.98789 14.5746C4.49709 14.6758 5.02489 14.6239 5.50455 14.4252C5.9842 14.2265 6.39417 13.8901 6.68261 13.4584C6.97105 13.0267 7.125 12.5192 7.125 12C7.125 11.3038 6.84844 10.6361 6.35616 10.1438C5.86387 9.65156 5.19619 9.375 4.5 9.375ZM19.5 9.375C18.9808 9.375 18.4733 9.52895 18.0416 9.81739C17.61 10.1058 17.2735 10.5158 17.0748 10.9955C16.8761 11.4751 16.8242 12.0029 16.9254 12.5121C17.0267 13.0213 17.2767 13.489 17.6438 13.8562C18.011 14.2233 18.4787 14.4733 18.9879 14.5746C19.4971 14.6758 20.0249 14.6239 20.5045 14.4252C20.9842 14.2265 21.3942 13.8901 21.6826 13.4584C21.971 13.0267 22.125 12.5192 22.125 12C22.125 11.6553 22.0571 11.3139 21.9252 10.9955C21.7933 10.677 21.5999 10.3876 21.3562 10.1438C21.1124 9.90009 20.823 9.70673 20.5045 9.57482C20.1861 9.4429 19.8447 9.375 19.5 9.375Z" fill-opacity="0.4"/></symbol><symbol viewBox="0 0 20 20" id="plus" xmlns="http://www.w3.org/2000/svg"><path d="M19.375 10C19.375 10.2984 19.2565 10.5845 19.0455 10.7955C18.8345 11.0065 18.5484 11.125 18.25 11.125H11.125V18.25C11.125 18.5484 11.0065 18.8345 10.7955 19.0455C10.5845 19.2565 10.2984 19.375 10 19.375C9.70163 19.375 9.41548 19.2565 9.2045 19.0455C8.99353 18.8345 8.875 18.5484 8.875 18.25V11.125H1.75C1.45163 11.125 1.16548 11.0065 0.954505 10.7955C0.743526 10.5845 0.625 10.2984 0.625 10C0.625 9.70163 0.743526 9.41548 0.954505 9.2045C1.16548 8.99353 1.45163 8.875 1.75 8.875H8.875V1.75C8.875 1.45163 8.99353 1.16548 9.2045 0.954505C9.41548 0.743526 9.70163 0.625 10 0.625C10.2984 0.625 10.5845 0.743526 10.7955 0.954505C11.0065 1.16548 11.125 1.45163 11.125 1.75V8.875H18.25C18.5484 8.875 18.8345 8.99353 19.0455 9.2045C19.2565 9.41548 19.375 9.70163 19.375 10Z"/></symbol><symbol viewBox="0 0 24 24" id="search" xmlns="http://www.w3.org/2000/svg"><path d="M21.7959 20.2041L17.3437 15.75C18.6787 14.0104 19.3019 11.8282 19.087 9.64607C18.8722 7.4639 17.8353 5.44516 16.1867 3.99937C14.5382 2.55357 12.4014 1.78899 10.2098 1.86071C8.01829 1.93244 5.93607 2.8351 4.38558 4.38559C2.83509 5.93608 1.93243 8.0183 1.8607 10.2098C1.78898 12.4014 2.55356 14.5382 3.99936 16.1867C5.44515 17.8353 7.46389 18.8722 9.64606 19.087C11.8282 19.3019 14.0104 18.6787 15.75 17.3438L20.2059 21.8006C20.3106 21.9053 20.4348 21.9883 20.5715 22.0449C20.7083 22.1016 20.8548 22.1307 21.0028 22.1307C21.1508 22.1307 21.2973 22.1016 21.4341 22.0449C21.5708 21.9883 21.695 21.9053 21.7997 21.8006C21.9043 21.696 21.9873 21.5717 22.044 21.435C22.1006 21.2983 22.1298 21.1517 22.1298 21.0037C22.1298 20.8558 22.1006 20.7092 22.044 20.5725C21.9873 20.4358 21.9043 20.3115 21.7997 20.2069L21.7959 20.2041ZM4.12499 10.5C4.12499 9.23915 4.49888 8.0066 5.19938 6.95824C5.89987 5.90988 6.89551 5.09278 8.06039 4.61027C9.22527 4.12776 10.5071 4.00151 11.7437 4.2475C12.9803 4.49348 14.1162 5.10064 15.0078 5.9922C15.8994 6.88376 16.5065 8.01967 16.7525 9.2563C16.9985 10.4929 16.8722 11.7747 16.3897 12.9396C15.9072 14.1045 15.0901 15.1001 14.0418 15.8006C12.9934 16.5011 11.7608 16.875 10.5 16.875C8.80977 16.8733 7.18927 16.2011 5.99411 15.0059C4.79894 13.8107 4.12673 12.1902 4.12499 10.5Z" fill-opacity="0.4"/></symbol><symbol viewBox="0 0 16 16" id="select-arrow" xmlns="http://www.w3.org/2000/svg"><path d="M13.5306 6.53061L8.5306 11.5306C8.46092 11.6005 8.37813 11.656 8.28696 11.6939C8.1958 11.7317 8.09806 11.7512 7.99935 11.7512C7.90064 11.7512 7.8029 11.7317 7.71173 11.6939C7.62057 11.656 7.53778 11.6005 7.4681 11.5306L2.4681 6.53061C2.3272 6.38972 2.24805 6.19862 2.24805 5.99936C2.24805 5.80011 2.3272 5.60901 2.4681 5.46811C2.60899 5.32722 2.80009 5.24806 2.99935 5.24806C3.19861 5.24806 3.3897 5.32722 3.5306 5.46811L7.99997 9.93749L12.4693 5.46749C12.6102 5.32659 12.8013 5.24744 13.0006 5.24744C13.1999 5.24744 13.391 5.32659 13.5318 5.46749C13.6727 5.60838 13.7519 5.79948 13.7519 5.99874C13.7519 6.198 13.6727 6.38909 13.5318 6.52999L13.5306 6.53061Z"/></symbol><symbol viewBox="0 0 20 20" id="sign-up-close" xmlns="http://www.w3.org/2000/svg"><path d="M16.2882 14.9617C16.4644 15.1378 16.5633 15.3767 16.5633 15.6258C16.5633 15.8749 16.4644 16.1137 16.2882 16.2898C16.1121 16.466 15.8733 16.5649 15.6242 16.5649C15.3751 16.5649 15.1362 16.466 14.9601 16.2898L9.99997 11.3281L5.03825 16.2883C4.86213 16.4644 4.62326 16.5633 4.37418 16.5633C4.12511 16.5633 3.88624 16.4644 3.71012 16.2883C3.534 16.1122 3.43506 15.8733 3.43506 15.6242C3.43506 15.3751 3.534 15.1363 3.71012 14.9602L8.67184 10L3.71168 5.03828C3.53556 4.86216 3.43662 4.62329 3.43662 4.37422C3.43662 4.12515 3.53556 3.88628 3.71168 3.71016C3.8878 3.53404 4.12668 3.43509 4.37575 3.43509C4.62482 3.43509 4.86369 3.53404 5.03981 3.71016L9.99997 8.67188L14.9617 3.70938C15.1378 3.53326 15.3767 3.43431 15.6257 3.43431C15.8748 3.43431 16.1137 3.53326 16.2898 3.70938C16.4659 3.8855 16.5649 4.12437 16.5649 4.37344C16.5649 4.62251 16.4659 4.86138 16.2898 5.0375L11.3281 10L16.2882 14.9617Z"/></symbol><symbol viewBox="0 0 19 17" id="star" xmlns="http://www.w3.org/2000/svg"><path d="M9.24494 0.255005L11.8641 5.89491L18.0374 6.6431L13.4829 10.8769L14.679 16.9793L9.24494 13.956L3.8109 16.9793L5.00697 10.8769L0.452479 6.6431L6.62573 5.89491L9.24494 0.255005Z"/></symbol><symbol viewBox="0 0 9 17" id="star-half" xmlns="http://www.w3.org/2000/svg"><path d="M3.56595 16.9793L8.99999 13.956V0.255005L6.38079 5.89491L0.207535 6.6431L4.76203 10.8769L3.56595 16.9793Z"/></symbol><symbol viewBox="0 0 12 10" id="twitter" xmlns="http://www.w3.org/2000/svg"><path d="M11.2071 1.9831C10.7881 2.16933 10.3458 2.28573 9.88023 2.35557C10.3458 2.07622 10.7183 1.63392 10.8812 1.0985C10.4389 1.35457 9.95006 1.5408 9.41465 1.6572C8.99562 1.2149 8.39037 0.935547 7.73856 0.935547C6.48149 0.935547 5.45721 1.95982 5.45721 3.21689C5.45721 3.40312 5.48049 3.56608 5.52705 3.72903C3.64145 3.63591 1.94208 2.72803 0.801411 1.33129C0.615178 1.68048 0.498783 2.05294 0.498783 2.47196C0.498783 3.26345 0.894527 3.96182 1.52306 4.38084C1.1506 4.35756 0.801411 4.26445 0.475504 4.10149V4.12477C0.475504 5.24216 1.26699 6.17333 2.31455 6.38284C2.12831 6.42939 1.9188 6.45267 1.70929 6.45267C1.56962 6.45267 1.40666 6.42939 1.26699 6.40612C1.56962 7.314 2.40766 7.98909 3.40866 7.98909C2.61717 8.59434 1.63945 8.96681 0.56862 8.96681C0.382388 8.96681 0.196156 8.96681 0.0332031 8.94353C1.05748 9.59534 2.24471 9.96781 3.54833 9.96781C7.76184 9.96781 10.0665 6.47595 10.0665 3.44968C10.0665 3.35656 10.0665 3.24017 10.0665 3.14705C10.5088 2.84443 10.9045 2.44868 11.2071 1.9831Z"/></symbol></svg>