<?xml version="1.0" encoding="utf-8"?><svg viewBox="0 0 159 25" xmlns="http://www.w3.org/2000/svg" xmlns:xlink="http://www.w3.org/1999/xlink"><style>:root>svg{display:none}:root>svg:target{display:block}</style><svg fill="none" viewBox="0 0 24 24" id="account" xmlns="http://www.w3.org/2000/svg"><path d="M12 1.875A10.125 10.125 0 1 0 22.125 12 10.137 10.137 0 0 0 12 1.875ZM7.46 18.428a5.625 5.625 0 0 1 9.08 0 7.848 7.848 0 0 1-9.08 0Zm1.915-7.178a2.625 2.625 0 1 1 5.25 0 2.625 2.625 0 0 1-5.25 0Zm8.813 5.62a7.827 7.827 0 0 0-2.72-2.196 4.875 4.875 0 1 0-6.937 0 7.827 7.827 0 0 0-2.719 2.195 7.875 7.875 0 1 1 12.366 0h.01Z" fill="#000"/></svg><svg fill="none" viewBox="0 0 24 24" id="arrow-swiper" xmlns="http://www.w3.org/2000/svg"><path d="m9.704 4.454-6.75 6.75a1.124 1.124 0 0 0 0 1.594l6.75 6.75a1.127 1.127 0 0 0 1.594-1.594l-4.83-4.829H20.25a1.125 1.125 0 1 0 0-2.25H6.469l4.83-4.829a1.127 1.127 0 1 0-1.594-1.594v.002Z" fill="#000"/></svg><svg fill="none" viewBox="0 0 24 24" id="burger" xmlns="http://www.w3.org/2000/svg"><path d="M21.375 12a1.125 1.125 0 0 1-1.125 1.125H3.75a1.125 1.125 0 1 1 0-2.25h16.5A1.125 1.125 0 0 1 21.375 12ZM3.75 7.125h16.5a1.125 1.125 0 0 0 0-2.25H3.75a1.125 1.125 0 0 0 0 2.25Zm16.5 9.75H3.75a1.125 1.125 0 1 0 0 2.25h16.5a1.125 1.125 0 1 0 0-2.25Z" fill="#000"/></svg><svg fill="none" viewBox="0 0 24 24" id="cart" xmlns="http://www.w3.org/2000/svg"><path d="M9.375 20.25a1.875 1.875 0 1 1-3.75 0 1.875 1.875 0 0 1 3.75 0Zm7.875-1.875a1.875 1.875 0 1 0 0 3.75 1.875 1.875 0 0 0 0-3.75Zm4.825-11.294-2.558 8.316a2.614 2.614 0 0 1-2.51 1.853H7.775a2.637 2.637 0 0 1-2.525-1.904L2.045 4.125h-.92a1.125 1.125 0 0 1 0-2.25h1.202a1.882 1.882 0 0 1 1.803 1.36l.683 2.39H21a1.125 1.125 0 0 1 1.075 1.456Zm-2.598.794H5.455l1.959 6.853a.375.375 0 0 0 .36.272h9.233a.375.375 0 0 0 .36-.264l2.11-6.861Z" fill="#000"/></svg><svg fill="none" viewBox="0 0 25 24" id="cart-arrow" xmlns="http://www.w3.org/2000/svg"><path d="m14.796 4.454 6.75 6.75a1.124 1.124 0 0 1 0 1.594l-6.75 6.75a1.127 1.127 0 0 1-1.594-1.594l4.83-4.829H4.25a1.125 1.125 0 1 1 0-2.25h13.781l-4.83-4.829a1.127 1.127 0 1 1 1.594-1.594v.002Z" fill="#fff"/></svg><svg fill="none" viewBox="0 0 24 24" id="cart-promo" xmlns="http://www.w3.org/2000/svg"><path d="m23.077 12.486-9.312-9.312a1.861 1.861 0 0 0-1.325-.549H3.75A1.125 1.125 0 0 0 2.625 3.75v8.69a1.86 1.86 0 0 0 .55 1.325l9.31 9.312a1.875 1.875 0 0 0 2.652 0l7.94-7.94a1.875 1.875 0 0 0 0-2.651ZM13.81 21.22l-8.936-8.939V4.875h7.406l8.937 8.936-7.407 7.41ZM9.375 7.875a1.5 1.5 0 1 1-3 0 1.5 1.5 0 0 1 3 0Z" fill="#000" fill-opacity=".4"/></svg><svg fill="none" viewBox="0 0 16 16" id="color-check" xmlns="http://www.w3.org/2000/svg"><path d="m14.53 5.03-8 8a.751.751 0 0 1-1.062 0l-3.5-3.5a.751.751 0 1 1 1.063-1.062L6 11.438l7.47-7.469a.751.751 0 0 1 1.062 1.063l-.001-.001Z" fill="#fff"/></svg><svg fill="none" viewBox="0 0 16 16" id="crumbs-arrow" xmlns="http://www.w3.org/2000/svg"><path d="m6.53 2.47 5 5a.75.75 0 0 1 0 1.062l-5 5a.751.751 0 0 1-1.062-1.063L9.938 8l-4.47-4.47A.751.751 0 1 1 6.53 2.469v.001Z" fill="#000" fill-opacity=".6"/></svg><svg fill="none" viewBox="0 0 24 24" id="delete" xmlns="http://www.w3.org/2000/svg"><path d="M20.25 4.5H16.5v-.75a2.25 2.25 0 0 0-2.25-2.25h-4.5A2.25 2.25 0 0 0 7.5 3.75v.75H3.75a.75.75 0 0 0 0 1.5h.75v13.5A1.5 1.5 0 0 0 6 21h12a1.5 1.5 0 0 0 1.5-1.5V6h.75a.75.75 0 1 0 0-1.5ZM10.5 15.75a.75.75 0 1 1-1.5 0v-6a.75.75 0 0 1 1.5 0v6Zm4.5 0a.75.75 0 1 1-1.5 0v-6a.75.75 0 1 1 1.5 0v6ZM15 4.5H9v-.75A.75.75 0 0 1 9.75 3h4.5a.75.75 0 0 1 .75.75v.75Z" fill="#F33"/></svg><svg fill="none" viewBox="0 0 8 13" id="facebook" xmlns="http://www.w3.org/2000/svg"><path d="M2.709 12.304V6.75H.839V4.586h1.87V2.99C2.709 1.138 3.84.129 5.492.129c.792 0 1.472.059 1.67.085V2.15H6.016c-.898 0-1.072.427-1.072 1.054v1.382h2.143l-.28 2.164H4.945v5.554H2.709Z" fill="#fff"/></svg><svg fill="none" viewBox="0 0 22 20" id="filter" xmlns="http://www.w3.org/2000/svg"><path d="M12.125 9.625v8.625a1.125 1.125 0 1 1-2.25 0V9.625a1.125 1.125 0 0 1 2.25 0ZM17.75 16a1.125 1.125 0 0 0-1.125 1.125v1.125a1.125 1.125 0 1 0 2.25 0v-1.125A1.125 1.125 0 0 0 17.75 16ZM20 12.25h-1.125V1.75a1.125 1.125 0 1 0-2.25 0v10.5H15.5a1.125 1.125 0 1 0 0 2.25H20a1.125 1.125 0 1 0 0-2.25ZM4.25 13a1.125 1.125 0 0 0-1.125 1.125v4.125a1.125 1.125 0 0 0 2.25 0v-4.125A1.125 1.125 0 0 0 4.25 13ZM6.5 9.25H5.375v-7.5a1.125 1.125 0 0 0-2.25 0v7.5H2a1.125 1.125 0 0 0 0 2.25h4.5a1.125 1.125 0 1 0 0-2.25Zm6.75-4.5h-1.125v-3a1.125 1.125 0 1 0-2.25 0v3H8.75a1.125 1.125 0 0 0 0 2.25h4.5a1.125 1.125 0 0 0 0-2.25Z" fill="#000"/></svg><svg fill="none" viewBox="0 0 24 24" id="filter-add" xmlns="http://www.w3.org/2000/svg"><path d="m23.077 12.486-9.312-9.312a1.861 1.861 0 0 0-1.325-.549H3.75A1.125 1.125 0 0 0 2.625 3.75v8.69a1.86 1.86 0 0 0 .55 1.325l9.31 9.312a1.875 1.875 0 0 0 2.652 0l7.94-7.94a1.875 1.875 0 0 0 0-2.651ZM13.81 21.22l-8.936-8.939V4.875h7.406l8.937 8.936-7.407 7.41ZM9.375 7.875a1.5 1.5 0 1 1-3 0 1.5 1.5 0 0 1 3 0Z" fill="#000" fill-opacity=".4"/></svg><svg fill="none" viewBox="0 0 16 16" id="filter-arrow" xmlns="http://www.w3.org/2000/svg"><path d="m6.53 2.47 5 5a.75.75 0 0 1 0 1.062l-5 5a.751.751 0 1 1-1.062-1.063L9.938 8l-4.47-4.47A.751.751 0 1 1 6.53 2.469v.001Z" fill="#000" fill-opacity=".6"/></svg><svg fill="none" viewBox="0 0 16 16" id="filter-btn" xmlns="http://www.w3.org/2000/svg"><path d="M8.75 7.75v5.75a.75.75 0 1 1-1.5 0V7.75a.75.75 0 0 1 1.5 0ZM12.5 12a.75.75 0 0 0-.75.75v.75a.75.75 0 1 0 1.5 0v-.75a.75.75 0 0 0-.75-.75ZM14 9.5h-.75v-7a.75.75 0 1 0-1.5 0v7H11a.75.75 0 1 0 0 1.5h3a.75.75 0 1 0 0-1.5ZM3.5 10a.75.75 0 0 0-.75.75v2.75a.75.75 0 1 0 1.5 0v-2.75A.75.75 0 0 0 3.5 10ZM5 7.5h-.75v-5a.75.75 0 0 0-1.5 0v5H2A.75.75 0 0 0 2 9h3a.75.75 0 0 0 0-1.5Zm4.5-3h-.75v-2a.75.75 0 0 0-1.5 0v2H6.5a.75.75 0 0 0 0 1.5h3a.75.75 0 1 0 0-1.5Z" fill="#000"/></svg><svg fill="none" viewBox="0 0 24 25" id="filter-close" xmlns="http://www.w3.org/2000/svg"><path d="M19.546 18.454a1.127 1.127 0 1 1-1.594 1.594L12 14.094l-5.954 5.952a1.127 1.127 0 1 1-1.594-1.594l5.954-5.952-5.952-5.954a1.127 1.127 0 0 1 1.594-1.594L12 10.906l5.954-5.955a1.127 1.127 0 0 1 1.594 1.594L13.594 12.5l5.952 5.954Z" fill="#000" fill-opacity=".4"/></svg><svg fill="none" viewBox="0 0 24 25" id="filters-icon" xmlns="http://www.w3.org/2000/svg"><path d="M13.125 12.125v8.625a1.125 1.125 0 1 1-2.25 0v-8.625a1.125 1.125 0 1 1 2.25 0ZM18.75 18.5a1.125 1.125 0 0 0-1.125 1.125v1.125a1.125 1.125 0 1 0 2.25 0v-1.125A1.125 1.125 0 0 0 18.75 18.5ZM21 14.75h-1.125V4.25a1.125 1.125 0 1 0-2.25 0v10.5H16.5a1.125 1.125 0 1 0 0 2.25H21a1.125 1.125 0 1 0 0-2.25Zm-15.75.75a1.125 1.125 0 0 0-1.125 1.125v4.125a1.125 1.125 0 0 0 2.25 0v-4.125A1.125 1.125 0 0 0 5.25 15.5Zm2.25-3.75H6.375v-7.5a1.125 1.125 0 0 0-2.25 0v7.5H3A1.125 1.125 0 1 0 3 14h4.5a1.125 1.125 0 1 0 0-2.25Zm6.75-4.5h-1.125v-3a1.125 1.125 0 1 0-2.25 0v3H9.75a1.125 1.125 0 0 0 0 2.25h4.5a1.125 1.125 0 0 0 0-2.25Z" fill="#000" fill-opacity=".4"/></svg><svg fill="none" viewBox="0 0 14 13" id="github" xmlns="http://www.w3.org/2000/svg"><path fill-rule="evenodd" clip-rule="evenodd" d="M6.607.227a6.464 6.464 0 0 0-6.48 6.48c0 2.861 1.863 5.291 4.428 6.155.324.054.432-.135.432-.324v-1.107c-1.81.405-2.187-.864-2.187-.864-.297-.756-.73-.945-.73-.945-.593-.405.055-.405.055-.405.648.054.999.675.999.675.567 1 1.512.702 1.89.54.054-.432.216-.702.405-.864-1.431-.162-2.943-.729-2.943-3.213 0-.702.243-1.296.675-1.728-.054-.162-.297-.81.054-1.727 0 0 .54-.162 1.782.675a6.506 6.506 0 0 1 1.62-.216c.54 0 1.107.08 1.62.216 1.242-.837 1.782-.675 1.782-.675.35.89.135 1.538.054 1.727.405.46.675 1.026.675 1.728 0 2.484-1.512 3.024-2.97 3.186.243.19.432.594.432 1.188v1.782c0 .162.108.378.459.324a6.448 6.448 0 0 0 4.428-6.129c0-3.59-2.89-6.48-6.48-6.48Z" fill="#000"/></svg><svg fill="none" viewBox="0 0 16 16" id="header-arrow" xmlns="http://www.w3.org/2000/svg"><path d="m13.53 6.53-5 5a.751.751 0 0 1-1.062 0l-5-5a.751.751 0 1 1 1.063-1.062L8 9.938l4.47-4.47a.751.751 0 0 1 1.062 1.062h-.001Z" fill="#000"/></svg><svg fill="none" viewBox="0 0 24 24" id="header-search" xmlns="http://www.w3.org/2000/svg"><path d="m21.796 20.204-4.452-4.454a8.636 8.636 0 1 0-1.594 1.594l4.456 4.457a1.126 1.126 0 1 0 1.594-1.594l-.004-.003ZM4.125 10.5a6.375 6.375 0 1 1 6.375 6.375A6.381 6.381 0 0 1 4.125 10.5Z" fill="#000"/></svg><svg fill="none" viewBox="0 0 14 14" id="instagram" xmlns="http://www.w3.org/2000/svg"><path d="M7 1.447c1.81 0 2.024.007 2.738.04.43.005.855.084 1.258.233a2.244 2.244 0 0 1 1.286 1.286c.15.403.228.828.233 1.258.032.714.04.928.04 2.737 0 1.809-.007 2.023-.04 2.737a3.76 3.76 0 0 1-.233 1.259 2.243 2.243 0 0 1-1.286 1.285c-.403.15-.828.228-1.258.234-.714.032-.928.039-2.737.039-1.81 0-2.023-.007-2.738-.04a3.759 3.759 0 0 1-1.258-.233 2.244 2.244 0 0 1-1.286-1.285 3.758 3.758 0 0 1-.233-1.258c-.032-.715-.04-.93-.04-2.738 0-1.809.008-2.023.04-2.737.006-.43.084-.855.233-1.258A2.243 2.243 0 0 1 3.005 1.72c.403-.15.829-.228 1.258-.233.715-.033.93-.04 2.738-.04Zm0-1.22c-1.838 0-2.07.007-2.792.04a4.974 4.974 0 0 0-1.645.315c-.452.17-.861.437-1.2.782a3.318 3.318 0 0 0-.782 1.2 4.973 4.973 0 0 0-.314 1.644c-.033.722-.04.954-.04 2.793 0 1.838.007 2.07.04 2.793.011.562.118 1.118.315 1.645.17.452.437.861.782 1.2.338.344.747.611 1.2.781a4.971 4.971 0 0 0 1.644.315c.723.032.954.04 2.793.04 1.84 0 2.07-.007 2.793-.04a4.972 4.972 0 0 0 1.646-.315 3.468 3.468 0 0 0 1.98-1.982 4.974 4.974 0 0 0 .315-1.645c.032-.722.04-.954.04-2.792 0-1.839-.008-2.07-.04-2.793a4.974 4.974 0 0 0-.316-1.645 3.32 3.32 0 0 0-.781-1.2 3.319 3.319 0 0 0-1.2-.782A4.974 4.974 0 0 0 9.793.267c-.722-.033-.954-.04-2.792-.04Z" fill="#000"/><path d="M7.002 3.523a3.479 3.479 0 1 0 0 6.958 3.479 3.479 0 0 0 0-6.958Zm0 5.737a2.258 2.258 0 1 1 0-4.516 2.258 2.258 0 0 1 0 4.516ZM10.618 4.198a.813.813 0 1 0 0-1.626.813.813 0 0 0 0 1.626Z" fill="#000"/></svg><svg fill="none" viewBox="0 0 159 25" id="logo" xmlns="http://www.w3.org/2000/svg"><path d="M11.6 24.747C3.867 24.72.213 22.32.4 16.507h6.64c.08 1.52 1.36 2.453 4.56 2.48 2.827.026 4.133-.774 4.133-1.814 0-.72-.4-1.466-2.586-1.786l-2.88-.454C6.027 14.24.933 13.733.933 8c0-4.427 3.6-7.147 10.72-7.147C18.08.853 22.56 2.64 22.427 9.04H15.84c-.267-1.493-1.52-2.427-4.347-2.427-2.453 0-3.466.747-3.466 1.76 0 .64.4 1.414 2.106 1.68l2.374.4c4.453.747 10.56.88 10.56 7.014 0 4.88-3.787 7.306-11.467 7.28ZM40.545 1.6h7.386V24h-7.386v-8.107H31.85V24h-7.386V1.6h7.386v8.107h8.694V1.6Zm21.557 23.147c-7.707 0-12.694-4.774-12.694-11.947 0-7.173 4.987-11.947 12.694-11.947 7.706 0 12.693 4.774 12.693 11.947 0 7.173-4.987 11.947-12.693 11.947Zm0-6.374c2.933 0 5.36-2.026 5.36-5.573 0-3.547-2.427-5.573-5.36-5.573-2.934 0-5.36 2.026-5.36 5.573 0 3.547 2.426 5.573 5.36 5.573ZM76.277 24V1.6h12.72c6.107 0 9.733 2.72 9.733 8.747 0 6.026-3.626 8.746-9.706 8.746h-5.36V24h-7.387Zm7.387-11.04h4.693c1.787 0 2.933-.88 2.933-2.613 0-1.734-1.146-2.614-2.906-2.614h-4.72v5.227Zm18.762 11.467c-2 0-3.68-1.654-3.68-3.627 0-1.973 1.68-3.627 3.68-3.627s3.68 1.654 3.68 3.627c0 1.973-1.68 3.627-3.68 3.627Zm17.725.32c-7.546 0-12.586-4.774-12.586-11.947 0-7.173 5.04-11.947 12.586-11.947 5.467 0 11.067 2.4 11.814 9.974h-7.04c-.614-2.454-2.347-3.6-4.774-3.6-2.933 0-5.253 2.186-5.253 5.573 0 3.387 2.32 5.573 5.253 5.573 2.427 0 4.16-1.146 4.774-3.653h7.04c-.747 7.627-6.294 10.027-11.814 10.027Zm25.857 0c-7.707 0-12.693-4.774-12.693-11.947 0-7.173 4.986-11.947 12.693-11.947s12.693 4.774 12.693 11.947c0 7.173-4.986 11.947-12.693 11.947Zm0-6.374c2.933 0 5.36-2.026 5.36-5.573 0-3.547-2.427-5.573-5.36-5.573-2.933 0-5.36 2.026-5.36 5.573 0 3.547 2.427 5.573 5.36 5.573Z" fill="#000"/></svg><svg fill="none" viewBox="0 0 8 13" id="logo-fb-simple_2" xmlns="http://www.w3.org/2000/svg"><path d="M2.709 12.304V6.75H.839V4.586h1.87V2.99C2.709 1.138 3.84.129 5.492.129c.792 0 1.472.059 1.67.085V2.15H6.016c-.898 0-1.072.427-1.072 1.054v1.382h2.143l-.28 2.164H4.945v5.554H2.709Z" fill="#fff"/></svg><svg fill="none" viewBox="0 0 24 24" id="mail" xmlns="http://www.w3.org/2000/svg"><path d="M21 4.125H3A1.125 1.125 0 0 0 1.875 5.25V18a1.875 1.875 0 0 0 1.875 1.875h16.5A1.875 1.875 0 0 0 22.125 18V5.25A1.125 1.125 0 0 0 21 4.125Zm-9 7.849L5.892 6.375h12.216L12 11.974ZM8.7 12l-4.575 4.192V7.808L8.699 12Zm1.664 1.526.876.804a1.125 1.125 0 0 0 1.52 0l.876-.804 4.472 4.099H5.892l4.472-4.099ZM15.301 12l4.574-4.192v8.384L15.301 12Z" fill="#000" fill-opacity=".4"/></svg><svg fill="none" viewBox="0 0 20 4" id="minus" xmlns="http://www.w3.org/2000/svg"><path d="M19.375 2a1.125 1.125 0 0 1-1.125 1.125H1.75a1.125 1.125 0 0 1 0-2.25h16.5A1.125 1.125 0 0 1 19.375 2Z" fill="#000"/></svg><svg fill="none" viewBox="0 0 24 24" id="more-btn" xmlns="http://www.w3.org/2000/svg"><path d="M14.625 12a2.625 2.625 0 1 1-5.25 0 2.625 2.625 0 0 1 5.25 0ZM4.5 9.375a2.625 2.625 0 1 0 0 5.25 2.625 2.625 0 0 0 0-5.25Zm15 0a2.625 2.625 0 1 0 0 5.25 2.625 2.625 0 0 0 0-5.25Z" fill="#000" fill-opacity=".4"/></svg><svg fill="none" viewBox="0 0 20 20" id="plus" xmlns="http://www.w3.org/2000/svg"><path d="M19.375 10a1.125 1.125 0 0 1-1.125 1.125h-7.125v7.125a1.125 1.125 0 1 1-2.25 0v-7.125H1.75a1.125 1.125 0 1 1 0-2.25h7.125V1.75a1.125 1.125 0 0 1 2.25 0v7.125h7.125A1.125 1.125 0 0 1 19.375 10Z" fill="#000"/></svg><svg fill="none" viewBox="0 0 24 24" id="search" xmlns="http://www.w3.org/2000/svg"><path d="m21.796 20.204-4.452-4.454a8.636 8.636 0 1 0-1.594 1.594l4.456 4.457a1.126 1.126 0 1 0 1.594-1.594l-.004-.003ZM4.125 10.5a6.375 6.375 0 1 1 6.375 6.375A6.381 6.381 0 0 1 4.125 10.5Z" fill="#000" fill-opacity=".4"/></svg><svg fill="none" viewBox="0 0 16 16" id="select-arrow" xmlns="http://www.w3.org/2000/svg"><path d="m13.53 6.53-5 5a.751.751 0 0 1-1.062 0l-5-5a.751.751 0 1 1 1.063-1.062L8 9.938l4.47-4.47a.751.751 0 0 1 1.062 1.062h-.001Z" fill="#000"/></svg><svg fill="none" viewBox="0 0 20 20" id="sign-up-close" xmlns="http://www.w3.org/2000/svg"><path d="M16.288 14.962a.939.939 0 1 1-1.328 1.328L10 11.328l-4.962 4.96A.94.94 0 0 1 3.71 14.96L8.672 10l-4.96-4.962A.94.94 0 1 1 5.04 3.71L10 8.672l4.962-4.963a.94.94 0 1 1 1.328 1.328L11.328 10l4.96 4.962Z" fill="#fff"/></svg><svg fill="none" viewBox="0 0 19 17" id="star" xmlns="http://www.w3.org/2000/svg"><path d="m9.245.255 2.62 5.64 6.172.748-4.554 4.234 1.196 6.102-5.434-3.023-5.434 3.023 1.196-6.102L.452 6.643l6.174-.748L9.245.255Z" fill="#FFC633"/></svg><svg fill="none" viewBox="0 0 9 17" id="star-half" xmlns="http://www.w3.org/2000/svg"><path d="M3.566 16.98 9 13.955V.255l-2.62 5.64-6.172.748 4.554 4.234-1.196 6.102Z" fill="#FFC633"/></svg><svg fill="none" viewBox="0 0 12 10" id="twitter" xmlns="http://www.w3.org/2000/svg"><path d="M11.207 1.983a5.102 5.102 0 0 1-1.327.373c.466-.28.838-.722 1.001-1.257a5.045 5.045 0 0 1-1.466.558A2.32 2.32 0 0 0 7.739.936a2.285 2.285 0 0 0-2.282 2.28c0 .187.023.35.07.513A6.522 6.522 0 0 1 .801 1.331C.615 1.681.5 2.053.5 2.472c0 .791.396 1.49 1.024 1.909A2.694 2.694 0 0 1 .476 4.1v.024a2.3 2.3 0 0 0 1.839 2.258c-.187.046-.396.07-.606.07-.14 0-.302-.024-.442-.047.303.908 1.14 1.583 2.142 1.583a4.658 4.658 0 0 1-2.84.978c-.187 0-.373 0-.536-.023a6.478 6.478 0 0 0 3.515 1.024c4.214 0 6.518-3.492 6.518-6.518v-.303a4.18 4.18 0 0 0 1.141-1.164Z" fill="#000"/></svg></svg>